<svg width="1440" height="13" viewBox="0 0 1440 13" fill="none" xmlns="http://www.w3.org/2000/svg">
<path d="M-62.496 12V1.12H-58.816C-57.5147 1.12 -56.5227 1.48267 -55.84 2.208C-55.1573 2.93333 -54.816 4 -54.816 5.408V7.696C-54.816 9.11467 -55.1573 10.1867 -55.84 10.912C-56.5227 11.6373 -57.5147 12 -58.816 12H-62.496ZM-58.896 2.96H-60.576V10.16H-58.896C-58.1387 10.16 -57.6 9.97333 -57.28 9.6C-56.9493 9.22667 -56.784 8.592 -56.784 7.696V5.408C-56.784 4.52267 -56.9493 3.89333 -57.28 3.52C-57.6 3.14667 -58.1387 2.96 -58.896 2.96ZM-45.9732 10.16V12H-52.2772V1.12H-46.1332V2.96H-50.3572V5.568H-46.6132V7.408H-50.3572V10.16H-45.9732ZM-36.0831 1.12L-39.5391 12H-41.5071L-44.9791 1.12H-42.8671L-41.2191 6.592L-40.4671 9.408L-39.6671 6.576L-38.0351 1.12H-36.0831ZM-28.0514 10.16V12H-34.3554V1.12H-28.2114V2.96H-32.4354V5.568H-28.6914V7.408H-32.4354V10.16H-28.0514ZM-19.5052 10.16V12H-25.7772V1.12H-23.8572V10.16H-19.5052ZM-10.05 5.408V7.696C-10.05 9.08267 -10.3967 10.176 -11.09 10.976C-11.7833 11.7653 -12.7967 12.16 -14.13 12.16C-15.474 12.16 -16.4927 11.7653 -17.186 10.976C-17.8687 10.176 -18.21 9.08267 -18.21 7.696V5.408C-18.21 4.02133 -17.8687 2.93333 -17.186 2.144C-16.4927 1.35467 -15.474 0.959999 -14.13 0.959999C-12.7967 0.959999 -11.7833 1.35467 -11.09 2.144C-10.3967 2.93333 -10.05 4.02133 -10.05 5.408ZM-12.018 5.408C-12.018 4.53333 -12.1887 3.87733 -12.53 3.44C-12.8713 2.992 -13.4047 2.768 -14.13 2.768C-14.8553 2.768 -15.3887 2.992 -15.73 3.44C-16.0713 3.87733 -16.242 4.53333 -16.242 5.408V7.696C-16.242 8.57067 -16.0713 9.232 -15.73 9.68C-15.3887 10.128 -14.8553 10.352 -14.13 10.352C-13.4047 10.352 -12.8713 10.128 -12.53 9.68C-12.1887 9.232 -12.018 8.57067 -12.018 7.696V5.408ZM-7.51162 12V1.12H-3.92762C-2.78629 1.12 -1.93296 1.408 -1.36762 1.984C-0.791625 2.56 -0.503625 3.328 -0.503625 4.288V5.136C-0.503625 6.096 -0.791625 6.86933 -1.36762 7.456C-1.93296 8.032 -2.78629 8.32 -3.92762 8.32H-5.59162V12H-7.51162ZM-3.92762 2.96H-5.59162V6.48H-3.92762C-3.45829 6.48 -3.10096 6.36267 -2.85562 6.128C-2.59962 5.89333 -2.47162 5.56267 -2.47162 5.136V4.288C-2.47162 3.872 -2.59962 3.54667 -2.85562 3.312C-3.10096 3.07733 -3.45829 2.96 -3.92762 2.96ZM7.97988 10.16V12H1.67588V1.12H7.81988V2.96H3.59588V5.568H7.33988V7.408H3.59588V10.16H7.97988ZM12.174 8V12H10.254V1.12H13.886C14.9847 1.12 15.8273 1.40267 16.414 1.968C17.0113 2.52267 17.31 3.26933 17.31 4.208V4.896C17.31 5.51467 17.1767 6.05867 16.91 6.528C16.6433 6.99733 16.2593 7.35467 15.758 7.6C16.6327 9.09333 17.3793 10.56 17.998 12H15.806C15.2727 10.6667 14.638 9.33333 13.902 8H12.174ZM13.886 2.88H12.174V6.24H13.886C14.3553 6.24 14.7127 6.12267 14.958 5.888C15.214 5.64267 15.342 5.312 15.342 4.896V4.208C15.342 3.80267 15.214 3.48267 14.958 3.248C14.7127 3.00267 14.3553 2.88 13.886 2.88ZM32.8165 12V1.12H36.4965C37.7978 1.12 38.7898 1.48267 39.4725 2.208C40.1552 2.93333 40.4965 4 40.4965 5.408V7.696C40.4965 9.11467 40.1552 10.1867 39.4725 10.912C38.7898 11.6373 37.7978 12 36.4965 12H32.8165ZM36.4165 2.96H34.7365V10.16H36.4165C37.1738 10.16 37.7125 9.97333 38.0325 9.6C38.3632 9.22667 38.5285 8.592 38.5285 7.696V5.408C38.5285 4.52267 38.3632 3.89333 38.0325 3.52C37.7125 3.14667 37.1738 2.96 36.4165 2.96ZM49.3393 10.16V12H43.0353V1.12H49.1793V2.96H44.9553V5.568H48.6993V7.408H44.9553V10.16H49.3393ZM53.9814 10.384C55.2187 10.384 55.8374 9.92533 55.8374 9.008C55.8374 8.63467 55.7414 8.34133 55.5494 8.128C55.368 7.91467 55.0267 7.728 54.5254 7.568L53.2134 7.136C51.6454 6.624 50.8614 5.59467 50.8614 4.048C50.8614 3.152 51.1387 2.416 51.6934 1.84C52.2587 1.25333 53.1387 0.959999 54.3334 0.959999C54.8347 0.959999 55.3307 1.01867 55.8214 1.136C56.312 1.24267 56.8347 1.41867 57.3894 1.664L56.7974 3.312C56.2854 3.10933 55.848 2.96533 55.4854 2.88C55.1334 2.784 54.7707 2.736 54.3974 2.736C53.9067 2.736 53.5174 2.82667 53.2294 3.008C52.952 3.17867 52.8134 3.49333 52.8134 3.952C52.8134 4.29333 52.9094 4.576 53.1014 4.8C53.304 5.01333 53.6347 5.19467 54.0934 5.344L55.4054 5.776C56.1947 6.04267 56.7867 6.432 57.1814 6.944C57.5867 7.44533 57.7894 8.112 57.7894 8.944C57.7894 9.904 57.4854 10.6827 56.8774 11.28C56.2694 11.8667 55.3147 12.16 54.0134 12.16C53.5014 12.16 52.968 12.1013 52.4134 11.984C51.8694 11.856 51.272 11.6427 50.6214 11.344L51.2134 9.696C51.8107 9.952 52.3174 10.1333 52.7334 10.24C53.16 10.336 53.576 10.384 53.9814 10.384ZM61.8146 12H59.8946V1.12H61.8146V12ZM72.0165 11.296C71.7498 11.456 71.3072 11.6427 70.6885 11.856C70.0805 12.0587 69.3658 12.16 68.5445 12.16C67.6165 12.16 66.8378 11.968 66.2085 11.584C65.5898 11.2 65.1205 10.672 64.8005 10C64.4805 9.328 64.3205 8.56 64.3205 7.696V5.408C64.3205 4.52267 64.4805 3.74933 64.8005 3.088C65.1205 2.416 65.5952 1.89333 66.2245 1.52C66.8645 1.14667 67.6645 0.959999 68.6245 0.959999C69.0938 0.959999 69.5792 1.01333 70.0805 1.12C70.5818 1.216 71.1312 1.39733 71.7285 1.664L71.1365 3.344C70.6138 3.14133 70.1605 2.99733 69.7765 2.912C69.4032 2.816 69.0298 2.768 68.6565 2.768C67.8245 2.768 67.2218 3.008 66.8485 3.488C66.4752 3.95733 66.2885 4.59733 66.2885 5.408V7.696C66.2885 8.464 66.4752 9.09333 66.8485 9.584C67.2325 10.0747 67.8298 10.32 68.6405 10.32C68.8858 10.32 69.1525 10.2987 69.4405 10.256C69.7285 10.2133 70.0058 10.1547 70.2725 10.08V7.696H68.5125V6.016H72.0165V11.296ZM74.4571 12V1.12H76.2171C77.0598 2.21867 77.8598 3.38133 78.6171 4.608C79.3745 5.824 80.0625 7.07733 80.6811 8.368L80.5371 5.12V1.12H82.3771V12H80.6171C79.9345 10.656 79.2251 9.30667 78.4891 7.952C77.7638 6.58667 76.9905 5.30133 76.1691 4.096L76.2971 7.84V12H74.4571ZM91.683 10.16V12H85.379V1.12H91.523V2.96H87.299V5.568H91.043V7.408H87.299V10.16H91.683ZM95.8771 8V12H93.9571V1.12H97.5891C98.6878 1.12 99.5305 1.40267 100.117 1.968C100.714 2.52267 101.013 3.26933 101.013 4.208V4.896C101.013 5.51467 100.88 6.05867 100.613 6.528C100.346 6.99733 99.9625 7.35467 99.4611 7.6C100.336 9.09333 101.082 10.56 101.701 12H99.5091C98.9758 10.6667 98.3411 9.33333 97.6051 8H95.8771ZM97.5891 2.88H95.8771V6.24H97.5891C98.0585 6.24 98.4158 6.12267 98.6611 5.888C98.9171 5.64267 99.0451 5.312 99.0451 4.896V4.208C99.0451 3.80267 98.9171 3.48267 98.6611 3.248C98.4158 3.00267 98.0585 2.88 97.5891 2.88ZM115.224 2.96V1.12H123.224V2.96H120.184V12H118.264V2.96H115.224ZM131.246 10.16V12H124.942V1.12H131.086V2.96H126.862V5.568H130.606V7.408H126.862V10.16H131.246ZM134.992 7.696C134.992 8.47467 135.162 9.11467 135.504 9.616C135.845 10.1067 136.405 10.352 137.184 10.352C137.504 10.352 137.834 10.3093 138.176 10.224C138.528 10.1387 138.96 9.99467 139.472 9.792L140.064 11.456C139.488 11.712 138.954 11.8933 138.464 12C137.984 12.1067 137.52 12.16 137.072 12.16C136.176 12.16 135.424 11.968 134.816 11.584C134.218 11.2 133.77 10.672 133.472 10C133.173 9.328 133.024 8.56 133.024 7.696V5.408C133.024 4.544 133.173 3.776 133.472 3.104C133.77 2.432 134.218 1.90933 134.816 1.536C135.424 1.152 136.176 0.959999 137.072 0.959999C137.509 0.959999 137.962 1.01333 138.432 1.12C138.901 1.216 139.413 1.38667 139.968 1.632L139.376 3.328C138.885 3.12533 138.474 2.98133 138.144 2.896C137.813 2.81067 137.493 2.768 137.184 2.768C136.405 2.768 135.845 3.01333 135.504 3.504C135.162 3.99467 134.992 4.62933 134.992 5.408V7.696ZM148.051 12V7.408H143.987V12H142.067V1.12H143.987V5.568H148.051V1.12H149.97V12H148.051ZM152.973 12V1.12H154.733C155.575 2.21867 156.375 3.38133 157.133 4.608C157.89 5.824 158.578 7.07733 159.197 8.368L159.053 5.12V1.12H160.893V12H159.133C158.45 10.656 157.741 9.30667 157.005 7.952C156.279 6.58667 155.506 5.30133 154.685 4.096L154.813 7.84V12H152.973ZM165.815 12H163.895V1.12H165.815V12ZM170.289 7.696C170.289 8.47467 170.459 9.11467 170.801 9.616C171.142 10.1067 171.702 10.352 172.481 10.352C172.801 10.352 173.131 10.3093 173.473 10.224C173.825 10.1387 174.257 9.99467 174.769 9.792L175.361 11.456C174.785 11.712 174.251 11.8933 173.761 12C173.281 12.1067 172.817 12.16 172.369 12.16C171.473 12.16 170.721 11.968 170.113 11.584C169.515 11.2 169.067 10.672 168.769 10C168.47 9.328 168.321 8.56 168.321 7.696V5.408C168.321 4.544 168.47 3.776 168.769 3.104C169.067 2.432 169.515 1.90933 170.113 1.536C170.721 1.152 171.473 0.959999 172.369 0.959999C172.806 0.959999 173.259 1.01333 173.729 1.12C174.198 1.216 174.71 1.38667 175.265 1.632L174.673 3.328C174.182 3.12533 173.771 2.98133 173.441 2.896C173.11 2.81067 172.79 2.768 172.481 2.768C171.702 2.768 171.142 3.01333 170.801 3.504C170.459 3.99467 170.289 4.62933 170.289 5.408V7.696ZM183.155 12L182.483 9.872H178.755L178.083 12H176.179L179.811 1.12H181.507L185.155 12H183.155ZM179.795 6.544L179.299 8.112H181.923L181.427 6.544L180.627 3.792L179.795 6.544ZM193.245 10.16V12H186.973V1.12H188.893V10.16H193.245ZM200.109 5.424L200.717 9.456L202.893 1.12H204.621L206.781 9.392L207.453 5.424L208.285 1.12H210.237L207.789 12H205.821L203.725 3.904L201.613 12H199.645L197.197 1.12H199.277L200.109 5.424ZM214.08 8V12H212.16V1.12H215.792C216.891 1.12 217.734 1.40267 218.32 1.968C218.918 2.52267 219.216 3.26933 219.216 4.208V4.896C219.216 5.51467 219.083 6.05867 218.816 6.528C218.55 6.99733 218.166 7.35467 217.664 7.6C218.539 9.09333 219.286 10.56 219.904 12H217.712C217.179 10.6667 216.544 9.33333 215.808 8H214.08ZM215.792 2.88H214.08V6.24H215.792C216.262 6.24 216.619 6.12267 216.864 5.888C217.12 5.64267 217.248 5.312 217.248 4.896V4.208C217.248 3.80267 217.12 3.48267 216.864 3.248C216.619 3.00267 216.262 2.88 215.792 2.88ZM223.83 12H221.91V1.12H223.83V12ZM225.536 2.96V1.12H233.536V2.96H230.496V12H228.576V2.96H225.536ZM241.558 10.16V12H235.254V1.12H241.398V2.96H237.174V5.568H240.918V7.408H237.174V10.16H241.558ZM245.752 8V12H243.832V1.12H247.464C248.563 1.12 249.405 1.40267 249.992 1.968C250.589 2.52267 250.888 3.26933 250.888 4.208V4.896C250.888 5.51467 250.755 6.05867 250.488 6.528C250.221 6.99733 249.837 7.35467 249.336 7.6C250.211 9.09333 250.957 10.56 251.576 12H249.384C248.851 10.6667 248.216 9.33333 247.48 8H245.752ZM247.464 2.88H245.752V6.24H247.464C247.933 6.24 248.291 6.12267 248.536 5.888C248.792 5.64267 248.92 5.312 248.92 4.896V4.208C248.92 3.80267 248.792 3.48267 248.536 3.248C248.291 3.00267 247.933 2.88 247.464 2.88ZM266.395 12V1.12H270.075C271.376 1.12 272.368 1.48267 273.051 2.208C273.733 2.93333 274.075 4 274.075 5.408V7.696C274.075 9.11467 273.733 10.1867 273.051 10.912C272.368 11.6373 271.376 12 270.075 12H266.395ZM269.995 2.96H268.315V10.16H269.995C270.752 10.16 271.291 9.97333 271.611 9.6C271.941 9.22667 272.107 8.592 272.107 7.696V5.408C272.107 4.52267 271.941 3.89333 271.611 3.52C271.291 3.14667 270.752 2.96 269.995 2.96ZM282.917 10.16V12H276.613V1.12H282.757V2.96H278.533V5.568H282.277V7.408H278.533V10.16H282.917ZM292.808 1.12L289.352 12H287.384L283.912 1.12H286.024L287.672 6.592L288.424 9.408L289.224 6.576L290.856 1.12H292.808ZM300.839 10.16V12H294.535V1.12H300.679V2.96H296.455V5.568H300.199V7.408H296.455V10.16H300.839ZM309.385 10.16V12H303.113V1.12H305.033V10.16H309.385ZM318.841 5.408V7.696C318.841 9.08267 318.494 10.176 317.801 10.976C317.107 11.7653 316.094 12.16 314.761 12.16C313.417 12.16 312.398 11.7653 311.705 10.976C311.022 10.176 310.681 9.08267 310.681 7.696V5.408C310.681 4.02133 311.022 2.93333 311.705 2.144C312.398 1.35467 313.417 0.959999 314.761 0.959999C316.094 0.959999 317.107 1.35467 317.801 2.144C318.494 2.93333 318.841 4.02133 318.841 5.408ZM316.873 5.408C316.873 4.53333 316.702 3.87733 316.361 3.44C316.019 2.992 315.486 2.768 314.761 2.768C314.035 2.768 313.502 2.992 313.161 3.44C312.819 3.87733 312.649 4.53333 312.649 5.408V7.696C312.649 8.57067 312.819 9.232 313.161 9.68C313.502 10.128 314.035 10.352 314.761 10.352C315.486 10.352 316.019 10.128 316.361 9.68C316.702 9.232 316.873 8.57067 316.873 7.696V5.408ZM321.379 12V1.12H324.963C326.104 1.12 326.958 1.408 327.523 1.984C328.099 2.56 328.387 3.328 328.387 4.288V5.136C328.387 6.096 328.099 6.86933 327.523 7.456C326.958 8.032 326.104 8.32 324.963 8.32H323.299V12H321.379ZM324.963 2.96H323.299V6.48H324.963C325.432 6.48 325.79 6.36267 326.035 6.128C326.291 5.89333 326.419 5.56267 326.419 5.136V4.288C326.419 3.872 326.291 3.54667 326.035 3.312C325.79 3.07733 325.432 2.96 324.963 2.96ZM336.871 10.16V12H330.567V1.12H336.711V2.96H332.487V5.568H336.231V7.408H332.487V10.16H336.871ZM341.065 8V12H339.145V1.12H342.777C343.875 1.12 344.718 1.40267 345.305 1.968C345.902 2.52267 346.201 3.26933 346.201 4.208V4.896C346.201 5.51467 346.067 6.05867 345.801 6.528C345.534 6.99733 345.15 7.35467 344.649 7.6C345.523 9.09333 346.27 10.56 346.889 12H344.697C344.163 10.6667 343.529 9.33333 342.793 8H341.065ZM342.777 2.88H341.065V6.24H342.777C343.246 6.24 343.603 6.12267 343.849 5.888C344.105 5.64267 344.233 5.312 344.233 4.896V4.208C344.233 3.80267 344.105 3.48267 343.849 3.248C343.603 3.00267 343.246 2.88 342.777 2.88ZM361.707 12V1.12H365.387C366.688 1.12 367.68 1.48267 368.363 2.208C369.046 2.93333 369.387 4 369.387 5.408V7.696C369.387 9.11467 369.046 10.1867 368.363 10.912C367.68 11.6373 366.688 12 365.387 12H361.707ZM365.307 2.96H363.627V10.16H365.307C366.064 10.16 366.603 9.97333 366.923 9.6C367.254 9.22667 367.419 8.592 367.419 7.696V5.408C367.419 4.52267 367.254 3.89333 366.923 3.52C366.603 3.14667 366.064 2.96 365.307 2.96ZM378.23 10.16V12H371.926V1.12H378.07V2.96H373.846V5.568H377.59V7.408H373.846V10.16H378.23ZM382.872 10.384C384.109 10.384 384.728 9.92533 384.728 9.008C384.728 8.63467 384.632 8.34133 384.44 8.128C384.259 7.91467 383.917 7.728 383.416 7.568L382.104 7.136C380.536 6.624 379.752 5.59467 379.752 4.048C379.752 3.152 380.029 2.416 380.584 1.84C381.149 1.25333 382.029 0.959999 383.224 0.959999C383.725 0.959999 384.221 1.01867 384.712 1.136C385.203 1.24267 385.725 1.41867 386.28 1.664L385.688 3.312C385.176 3.10933 384.739 2.96533 384.376 2.88C384.024 2.784 383.661 2.736 383.288 2.736C382.797 2.736 382.408 2.82667 382.12 3.008C381.843 3.17867 381.704 3.49333 381.704 3.952C381.704 4.29333 381.8 4.576 381.992 4.8C382.195 5.01333 382.525 5.19467 382.984 5.344L384.296 5.776C385.085 6.04267 385.677 6.432 386.072 6.944C386.477 7.44533 386.68 8.112 386.68 8.944C386.68 9.904 386.376 10.6827 385.768 11.28C385.16 11.8667 384.205 12.16 382.904 12.16C382.392 12.16 381.859 12.1013 381.304 11.984C380.76 11.856 380.163 11.6427 379.512 11.344L380.104 9.696C380.701 9.952 381.208 10.1333 381.624 10.24C382.051 10.336 382.467 10.384 382.872 10.384ZM390.705 12H388.785V1.12H390.705V12ZM400.907 11.296C400.64 11.456 400.198 11.6427 399.579 11.856C398.971 12.0587 398.256 12.16 397.435 12.16C396.507 12.16 395.728 11.968 395.099 11.584C394.48 11.2 394.011 10.672 393.691 10C393.371 9.328 393.211 8.56 393.211 7.696V5.408C393.211 4.52267 393.371 3.74933 393.691 3.088C394.011 2.416 394.486 1.89333 395.115 1.52C395.755 1.14667 396.555 0.959999 397.515 0.959999C397.984 0.959999 398.47 1.01333 398.971 1.12C399.472 1.216 400.022 1.39733 400.619 1.664L400.027 3.344C399.504 3.14133 399.051 2.99733 398.667 2.912C398.294 2.816 397.92 2.768 397.547 2.768C396.715 2.768 396.112 3.008 395.739 3.488C395.366 3.95733 395.179 4.59733 395.179 5.408V7.696C395.179 8.464 395.366 9.09333 395.739 9.584C396.123 10.0747 396.72 10.32 397.531 10.32C397.776 10.32 398.043 10.2987 398.331 10.256C398.619 10.2133 398.896 10.1547 399.163 10.08V7.696H397.403V6.016H400.907V11.296ZM403.348 12V1.12H405.108C405.95 2.21867 406.75 3.38133 407.508 4.608C408.265 5.824 408.953 7.07733 409.572 8.368L409.428 5.12V1.12H411.268V12H409.508C408.825 10.656 408.116 9.30667 407.38 7.952C406.654 6.58667 405.881 5.30133 405.06 4.096L405.188 7.84V12H403.348ZM420.574 10.16V12H414.27V1.12H420.414V2.96H416.19V5.568H419.934V7.408H416.19V10.16H420.574ZM424.768 8V12H422.848V1.12H426.48C427.578 1.12 428.421 1.40267 429.008 1.968C429.605 2.52267 429.904 3.26933 429.904 4.208V4.896C429.904 5.51467 429.77 6.05867 429.504 6.528C429.237 6.99733 428.853 7.35467 428.352 7.6C429.226 9.09333 429.973 10.56 430.592 12H428.4C427.866 10.6667 427.232 9.33333 426.496 8H424.768ZM426.48 2.88H424.768V6.24H426.48C426.949 6.24 427.306 6.12267 427.552 5.888C427.808 5.64267 427.936 5.312 427.936 4.896V4.208C427.936 3.80267 427.808 3.48267 427.552 3.248C427.306 3.00267 426.949 2.88 426.48 2.88ZM444.114 2.96V1.12H452.114V2.96H449.074V12H447.154V2.96H444.114ZM460.136 10.16V12H453.832V1.12H459.976V2.96H455.752V5.568H459.496V7.408H455.752V10.16H460.136ZM463.882 7.696C463.882 8.47467 464.053 9.11467 464.394 9.616C464.736 10.1067 465.296 10.352 466.074 10.352C466.394 10.352 466.725 10.3093 467.066 10.224C467.418 10.1387 467.85 9.99467 468.362 9.792L468.954 11.456C468.378 11.712 467.845 11.8933 467.354 12C466.874 12.1067 466.41 12.16 465.962 12.16C465.066 12.16 464.314 11.968 463.706 11.584C463.109 11.2 462.661 10.672 462.362 10C462.064 9.328 461.914 8.56 461.914 7.696V5.408C461.914 4.544 462.064 3.776 462.362 3.104C462.661 2.432 463.109 1.90933 463.706 1.536C464.314 1.152 465.066 0.959999 465.962 0.959999C466.4 0.959999 466.853 1.01333 467.322 1.12C467.792 1.216 468.304 1.38667 468.858 1.632L468.266 3.328C467.776 3.12533 467.365 2.98133 467.034 2.896C466.704 2.81067 466.384 2.768 466.074 2.768C465.296 2.768 464.736 3.01333 464.394 3.504C464.053 3.99467 463.882 4.62933 463.882 5.408V7.696ZM476.941 12V7.408H472.877V12H470.957V1.12H472.877V5.568H476.941V1.12H478.861V12H476.941ZM481.863 12V1.12H483.623C484.466 2.21867 485.266 3.38133 486.023 4.608C486.781 5.824 487.469 7.07733 488.087 8.368L487.943 5.12V1.12H489.783V12H488.023C487.341 10.656 486.631 9.30667 485.895 7.952C485.17 6.58667 484.397 5.30133 483.575 4.096L483.703 7.84V12H481.863ZM494.705 12H492.785V1.12H494.705V12ZM499.179 7.696C499.179 8.47467 499.35 9.11467 499.691 9.616C500.032 10.1067 500.592 10.352 501.371 10.352C501.691 10.352 502.022 10.3093 502.363 10.224C502.715 10.1387 503.147 9.99467 503.659 9.792L504.251 11.456C503.675 11.712 503.142 11.8933 502.651 12C502.171 12.1067 501.707 12.16 501.259 12.16C500.363 12.16 499.611 11.968 499.003 11.584C498.406 11.2 497.958 10.672 497.659 10C497.36 9.328 497.211 8.56 497.211 7.696V5.408C497.211 4.544 497.36 3.776 497.659 3.104C497.958 2.432 498.406 1.90933 499.003 1.536C499.611 1.152 500.363 0.959999 501.259 0.959999C501.696 0.959999 502.15 1.01333 502.619 1.12C503.088 1.216 503.6 1.38667 504.155 1.632L503.563 3.328C503.072 3.12533 502.662 2.98133 502.331 2.896C502 2.81067 501.68 2.768 501.371 2.768C500.592 2.768 500.032 3.01333 499.691 3.504C499.35 3.99467 499.179 4.62933 499.179 5.408V7.696ZM512.046 12L511.374 9.872H507.646L506.974 12H505.07L508.702 1.12H510.398L514.046 12H512.046ZM508.686 6.544L508.19 8.112H510.814L510.318 6.544L509.518 3.792L508.686 6.544ZM522.135 10.16V12H515.863V1.12H517.783V10.16H522.135ZM529 5.424L529.608 9.456L531.784 1.12H533.512L535.672 9.392L536.344 5.424L537.176 1.12H539.128L536.68 12H534.712L532.616 3.904L530.504 12H528.536L526.088 1.12H528.168L529 5.424ZM542.971 8V12H541.051V1.12H544.683C545.782 1.12 546.624 1.40267 547.211 1.968C547.808 2.52267 548.107 3.26933 548.107 4.208V4.896C548.107 5.51467 547.974 6.05867 547.707 6.528C547.44 6.99733 547.056 7.35467 546.555 7.6C547.43 9.09333 548.176 10.56 548.795 12H546.603C546.07 10.6667 545.435 9.33333 544.699 8H542.971ZM544.683 2.88H542.971V6.24H544.683C545.152 6.24 545.51 6.12267 545.755 5.888C546.011 5.64267 546.139 5.312 546.139 4.896V4.208C546.139 3.80267 546.011 3.48267 545.755 3.248C545.51 3.00267 545.152 2.88 544.683 2.88ZM552.721 12H550.801V1.12H552.721V12ZM554.427 2.96V1.12H562.427V2.96H559.387V12H557.467V2.96H554.427ZM570.449 10.16V12H564.145V1.12H570.289V2.96H566.065V5.568H569.809V7.408H566.065V10.16H570.449ZM574.643 8V12H572.723V1.12H576.355C577.453 1.12 578.296 1.40267 578.883 1.968C579.48 2.52267 579.779 3.26933 579.779 4.208V4.896C579.779 5.51467 579.645 6.05867 579.379 6.528C579.112 6.99733 578.728 7.35467 578.227 7.6C579.101 9.09333 579.848 10.56 580.467 12H578.275C577.741 10.6667 577.107 9.33333 576.371 8H574.643ZM576.355 2.88H574.643V6.24H576.355C576.824 6.24 577.181 6.12267 577.427 5.888C577.683 5.64267 577.811 5.312 577.811 4.896V4.208C577.811 3.80267 577.683 3.48267 577.427 3.248C577.181 3.00267 576.824 2.88 576.355 2.88ZM595.285 12V1.12H598.965C600.267 1.12 601.259 1.48267 601.941 2.208C602.624 2.93333 602.965 4 602.965 5.408V7.696C602.965 9.11467 602.624 10.1867 601.941 10.912C601.259 11.6373 600.267 12 598.965 12H595.285ZM598.885 2.96H597.205V10.16H598.885C599.643 10.16 600.181 9.97333 600.501 9.6C600.832 9.22667 600.997 8.592 600.997 7.696V5.408C600.997 4.52267 600.832 3.89333 600.501 3.52C600.181 3.14667 599.643 2.96 598.885 2.96ZM611.808 10.16V12H605.504V1.12H611.648V2.96H607.424V5.568H611.168V7.408H607.424V10.16H611.808ZM621.698 1.12L618.242 12H616.274L612.802 1.12H614.914L616.562 6.592L617.314 9.408L618.114 6.576L619.746 1.12H621.698ZM629.73 10.16V12H623.426V1.12H629.57V2.96H625.346V5.568H629.09V7.408H625.346V10.16H629.73ZM638.276 10.16V12H632.004V1.12H633.924V10.16H638.276ZM647.731 5.408V7.696C647.731 9.08267 647.385 10.176 646.691 10.976C645.998 11.7653 644.985 12.16 643.651 12.16C642.307 12.16 641.289 11.7653 640.595 10.976C639.913 10.176 639.571 9.08267 639.571 7.696V5.408C639.571 4.02133 639.913 2.93333 640.595 2.144C641.289 1.35467 642.307 0.959999 643.651 0.959999C644.985 0.959999 645.998 1.35467 646.691 2.144C647.385 2.93333 647.731 4.02133 647.731 5.408ZM645.763 5.408C645.763 4.53333 645.593 3.87733 645.251 3.44C644.91 2.992 644.377 2.768 643.651 2.768C642.926 2.768 642.393 2.992 642.051 3.44C641.71 3.87733 641.539 4.53333 641.539 5.408V7.696C641.539 8.57067 641.71 9.232 642.051 9.68C642.393 10.128 642.926 10.352 643.651 10.352C644.377 10.352 644.91 10.128 645.251 9.68C645.593 9.232 645.763 8.57067 645.763 7.696V5.408ZM650.27 12V1.12H653.854C654.995 1.12 655.848 1.408 656.414 1.984C656.99 2.56 657.278 3.328 657.278 4.288V5.136C657.278 6.096 656.99 6.86933 656.414 7.456C655.848 8.032 654.995 8.32 653.854 8.32H652.19V12H650.27ZM653.854 2.96H652.19V6.48H653.854C654.323 6.48 654.68 6.36267 654.926 6.128C655.182 5.89333 655.31 5.56267 655.31 5.136V4.288C655.31 3.872 655.182 3.54667 654.926 3.312C654.68 3.07733 654.323 2.96 653.854 2.96ZM665.761 10.16V12H659.457V1.12H665.601V2.96H661.377V5.568H665.121V7.408H661.377V10.16H665.761ZM669.955 8V12H668.035V1.12H671.667C672.766 1.12 673.609 1.40267 674.195 1.968C674.793 2.52267 675.091 3.26933 675.091 4.208V4.896C675.091 5.51467 674.958 6.05867 674.691 6.528C674.425 6.99733 674.041 7.35467 673.539 7.6C674.414 9.09333 675.161 10.56 675.779 12H673.587C673.054 10.6667 672.419 9.33333 671.683 8H669.955ZM671.667 2.88H669.955V6.24H671.667C672.137 6.24 672.494 6.12267 672.739 5.888C672.995 5.64267 673.123 5.312 673.123 4.896V4.208C673.123 3.80267 672.995 3.48267 672.739 3.248C672.494 3.00267 672.137 2.88 671.667 2.88ZM690.598 12V1.12H694.278C695.579 1.12 696.571 1.48267 697.254 2.208C697.936 2.93333 698.278 4 698.278 5.408V7.696C698.278 9.11467 697.936 10.1867 697.254 10.912C696.571 11.6373 695.579 12 694.278 12H690.598ZM694.198 2.96H692.518V10.16H694.198C694.955 10.16 695.494 9.97333 695.814 9.6C696.144 9.22667 696.31 8.592 696.31 7.696V5.408C696.31 4.52267 696.144 3.89333 695.814 3.52C695.494 3.14667 694.955 2.96 694.198 2.96ZM707.121 10.16V12H700.817V1.12H706.961V2.96H702.737V5.568H706.481V7.408H702.737V10.16H707.121ZM711.763 10.384C713 10.384 713.619 9.92533 713.619 9.008C713.619 8.63467 713.523 8.34133 713.331 8.128C713.149 7.91467 712.808 7.728 712.307 7.568L710.995 7.136C709.427 6.624 708.643 5.59467 708.643 4.048C708.643 3.152 708.92 2.416 709.475 1.84C710.04 1.25333 710.92 0.959999 712.115 0.959999C712.616 0.959999 713.112 1.01867 713.603 1.136C714.093 1.24267 714.616 1.41867 715.171 1.664L714.579 3.312C714.067 3.10933 713.629 2.96533 713.267 2.88C712.915 2.784 712.552 2.736 712.179 2.736C711.688 2.736 711.299 2.82667 711.011 3.008C710.733 3.17867 710.595 3.49333 710.595 3.952C710.595 4.29333 710.691 4.576 710.883 4.8C711.085 5.01333 711.416 5.19467 711.875 5.344L713.187 5.776C713.976 6.04267 714.568 6.432 714.963 6.944C715.368 7.44533 715.571 8.112 715.571 8.944C715.571 9.904 715.267 10.6827 714.659 11.28C714.051 11.8667 713.096 12.16 711.795 12.16C711.283 12.16 710.749 12.1013 710.195 11.984C709.651 11.856 709.053 11.6427 708.403 11.344L708.995 9.696C709.592 9.952 710.099 10.1333 710.515 10.24C710.941 10.336 711.357 10.384 711.763 10.384ZM719.596 12H717.676V1.12H719.596V12ZM729.798 11.296C729.531 11.456 729.088 11.6427 728.47 11.856C727.862 12.0587 727.147 12.16 726.326 12.16C725.398 12.16 724.619 11.968 723.99 11.584C723.371 11.2 722.902 10.672 722.582 10C722.262 9.328 722.102 8.56 722.102 7.696V5.408C722.102 4.52267 722.262 3.74933 722.582 3.088C722.902 2.416 723.376 1.89333 724.006 1.52C724.646 1.14667 725.446 0.959999 726.406 0.959999C726.875 0.959999 727.36 1.01333 727.862 1.12C728.363 1.216 728.912 1.39733 729.51 1.664L728.918 3.344C728.395 3.14133 727.942 2.99733 727.558 2.912C727.184 2.816 726.811 2.768 726.438 2.768C725.606 2.768 725.003 3.008 724.63 3.488C724.256 3.95733 724.07 4.59733 724.07 5.408V7.696C724.07 8.464 724.256 9.09333 724.63 9.584C725.014 10.0747 725.611 10.32 726.422 10.32C726.667 10.32 726.934 10.2987 727.222 10.256C727.51 10.2133 727.787 10.1547 728.054 10.08V7.696H726.294V6.016H729.798V11.296ZM732.238 12V1.12H733.998C734.841 2.21867 735.641 3.38133 736.398 4.608C737.156 5.824 737.844 7.07733 738.462 8.368L738.318 5.12V1.12H740.158V12H738.398C737.716 10.656 737.006 9.30667 736.27 7.952C735.545 6.58667 734.772 5.30133 733.95 4.096L734.078 7.84V12H732.238ZM749.464 10.16V12H743.16V1.12H749.304V2.96H745.08V5.568H748.824V7.408H745.08V10.16H749.464ZM753.658 8V12H751.738V1.12H755.37C756.469 1.12 757.312 1.40267 757.898 1.968C758.496 2.52267 758.794 3.26933 758.794 4.208V4.896C758.794 5.51467 758.661 6.05867 758.394 6.528C758.128 6.99733 757.744 7.35467 757.242 7.6C758.117 9.09333 758.864 10.56 759.482 12H757.29C756.757 10.6667 756.122 9.33333 755.386 8H753.658ZM755.37 2.88H753.658V6.24H755.37C755.84 6.24 756.197 6.12267 756.442 5.888C756.698 5.64267 756.826 5.312 756.826 4.896V4.208C756.826 3.80267 756.698 3.48267 756.442 3.248C756.197 3.00267 755.84 2.88 755.37 2.88ZM773.005 2.96V1.12H781.005V2.96H777.965V12H776.045V2.96H773.005ZM789.027 10.16V12H782.723V1.12H788.867V2.96H784.643V5.568H788.387V7.408H784.643V10.16H789.027ZM792.773 7.696C792.773 8.47467 792.944 9.11467 793.285 9.616C793.626 10.1067 794.186 10.352 794.965 10.352C795.285 10.352 795.616 10.3093 795.957 10.224C796.309 10.1387 796.741 9.99467 797.253 9.792L797.845 11.456C797.269 11.712 796.736 11.8933 796.245 12C795.765 12.1067 795.301 12.16 794.853 12.16C793.957 12.16 793.205 11.968 792.597 11.584C792 11.2 791.552 10.672 791.253 10C790.954 9.328 790.805 8.56 790.805 7.696V5.408C790.805 4.544 790.954 3.776 791.253 3.104C791.552 2.432 792 1.90933 792.597 1.536C793.205 1.152 793.957 0.959999 794.853 0.959999C795.29 0.959999 795.744 1.01333 796.213 1.12C796.682 1.216 797.194 1.38667 797.749 1.632L797.157 3.328C796.666 3.12533 796.256 2.98133 795.925 2.896C795.594 2.81067 795.274 2.768 794.965 2.768C794.186 2.768 793.626 3.01333 793.285 3.504C792.944 3.99467 792.773 4.62933 792.773 5.408V7.696ZM805.832 12V7.408H801.768V12H799.848V1.12H801.768V5.568H805.832V1.12H807.752V12H805.832ZM810.754 12V1.12H812.514C813.357 2.21867 814.157 3.38133 814.914 4.608C815.671 5.824 816.359 7.07733 816.978 8.368L816.834 5.12V1.12H818.674V12H816.914C816.231 10.656 815.522 9.30667 814.786 7.952C814.061 6.58667 813.287 5.30133 812.466 4.096L812.594 7.84V12H810.754ZM823.596 12H821.676V1.12H823.596V12ZM828.07 7.696C828.07 8.47467 828.24 9.11467 828.582 9.616C828.923 10.1067 829.483 10.352 830.262 10.352C830.582 10.352 830.912 10.3093 831.254 10.224C831.606 10.1387 832.038 9.99467 832.55 9.792L833.142 11.456C832.566 11.712 832.032 11.8933 831.542 12C831.062 12.1067 830.598 12.16 830.15 12.16C829.254 12.16 828.502 11.968 827.894 11.584C827.296 11.2 826.848 10.672 826.55 10C826.251 9.328 826.102 8.56 826.102 7.696V5.408C826.102 4.544 826.251 3.776 826.55 3.104C826.848 2.432 827.296 1.90933 827.894 1.536C828.502 1.152 829.254 0.959999 830.15 0.959999C830.587 0.959999 831.04 1.01333 831.51 1.12C831.979 1.216 832.491 1.38667 833.046 1.632L832.454 3.328C831.963 3.12533 831.552 2.98133 831.222 2.896C830.891 2.81067 830.571 2.768 830.262 2.768C829.483 2.768 828.923 3.01333 828.582 3.504C828.24 3.99467 828.07 4.62933 828.07 5.408V7.696ZM840.937 12L840.265 9.872H836.537L835.865 12H833.961L837.593 1.12H839.289L842.937 12H840.937ZM837.577 6.544L837.081 8.112H839.705L839.209 6.544L838.409 3.792L837.577 6.544ZM851.026 10.16V12H844.754V1.12H846.674V10.16H851.026ZM857.891 5.424L858.499 9.456L860.675 1.12H862.403L864.562 9.392L865.235 5.424L866.067 1.12H868.019L865.571 12H863.602L861.507 3.904L859.395 12H857.427L854.979 1.12H857.059L857.891 5.424ZM871.862 8V12H869.942V1.12H873.574C874.672 1.12 875.515 1.40267 876.102 1.968C876.699 2.52267 876.998 3.26933 876.998 4.208V4.896C876.998 5.51467 876.864 6.05867 876.598 6.528C876.331 6.99733 875.947 7.35467 875.446 7.6C876.32 9.09333 877.067 10.56 877.686 12H875.494C874.96 10.6667 874.326 9.33333 873.59 8H871.862ZM873.574 2.88H871.862V6.24H873.574C874.043 6.24 874.4 6.12267 874.646 5.888C874.902 5.64267 875.03 5.312 875.03 4.896V4.208C875.03 3.80267 874.902 3.48267 874.646 3.248C874.4 3.00267 874.043 2.88 873.574 2.88ZM881.612 12H879.692V1.12H881.612V12ZM883.317 2.96V1.12H891.317V2.96H888.277V12H886.357V2.96H883.317ZM899.339 10.16V12H893.035V1.12H899.179V2.96H894.955V5.568H898.699V7.408H894.955V10.16H899.339ZM903.533 8V12H901.613V1.12H905.245C906.344 1.12 907.187 1.40267 907.773 1.968C908.371 2.52267 908.669 3.26933 908.669 4.208V4.896C908.669 5.51467 908.536 6.05867 908.269 6.528C908.003 6.99733 907.619 7.35467 907.117 7.6C907.992 9.09333 908.739 10.56 909.357 12H907.165C906.632 10.6667 905.997 9.33333 905.261 8H903.533ZM905.245 2.88H903.533V6.24H905.245C905.715 6.24 906.072 6.12267 906.317 5.888C906.573 5.64267 906.701 5.312 906.701 4.896V4.208C906.701 3.80267 906.573 3.48267 906.317 3.248C906.072 3.00267 905.715 2.88 905.245 2.88ZM924.176 12V1.12H927.856C929.157 1.12 930.149 1.48267 930.832 2.208C931.515 2.93333 931.856 4 931.856 5.408V7.696C931.856 9.11467 931.515 10.1867 930.832 10.912C930.149 11.6373 929.157 12 927.856 12H924.176ZM927.776 2.96H926.096V10.16H927.776C928.533 10.16 929.072 9.97333 929.392 9.6C929.723 9.22667 929.888 8.592 929.888 7.696V5.408C929.888 4.52267 929.723 3.89333 929.392 3.52C929.072 3.14667 928.533 2.96 927.776 2.96ZM940.699 10.16V12H934.395V1.12H940.539V2.96H936.315V5.568H940.059V7.408H936.315V10.16H940.699ZM950.589 1.12L947.133 12H945.165L941.693 1.12H943.805L945.453 6.592L946.205 9.408L947.005 6.576L948.637 1.12H950.589ZM958.621 10.16V12H952.317V1.12H958.461V2.96H954.237V5.568H957.981V7.408H954.237V10.16H958.621ZM967.167 10.16V12H960.895V1.12H962.815V10.16H967.167ZM976.622 5.408V7.696C976.622 9.08267 976.275 10.176 975.582 10.976C974.889 11.7653 973.875 12.16 972.542 12.16C971.198 12.16 970.179 11.7653 969.486 10.976C968.803 10.176 968.462 9.08267 968.462 7.696V5.408C968.462 4.02133 968.803 2.93333 969.486 2.144C970.179 1.35467 971.198 0.959999 972.542 0.959999C973.875 0.959999 974.889 1.35467 975.582 2.144C976.275 2.93333 976.622 4.02133 976.622 5.408ZM974.654 5.408C974.654 4.53333 974.483 3.87733 974.142 3.44C973.801 2.992 973.267 2.768 972.542 2.768C971.817 2.768 971.283 2.992 970.942 3.44C970.601 3.87733 970.43 4.53333 970.43 5.408V7.696C970.43 8.57067 970.601 9.232 970.942 9.68C971.283 10.128 971.817 10.352 972.542 10.352C973.267 10.352 973.801 10.128 974.142 9.68C974.483 9.232 974.654 8.57067 974.654 7.696V5.408ZM979.16 12V1.12H982.744C983.886 1.12 984.739 1.408 985.304 1.984C985.88 2.56 986.168 3.328 986.168 4.288V5.136C986.168 6.096 985.88 6.86933 985.304 7.456C984.739 8.032 983.886 8.32 982.744 8.32H981.08V12H979.16ZM982.744 2.96H981.08V6.48H982.744C983.214 6.48 983.571 6.36267 983.816 6.128C984.072 5.89333 984.2 5.56267 984.2 5.136V4.288C984.2 3.872 984.072 3.54667 983.816 3.312C983.571 3.07733 983.214 2.96 982.744 2.96ZM994.652 10.16V12H988.348V1.12H994.492V2.96H990.268V5.568H994.012V7.408H990.268V10.16H994.652ZM998.846 8V12H996.926V1.12H1000.56C1001.66 1.12 1002.5 1.40267 1003.09 1.968C1003.68 2.52267 1003.98 3.26933 1003.98 4.208V4.896C1003.98 5.51467 1003.85 6.05867 1003.58 6.528C1003.32 6.99733 1002.93 7.35467 1002.43 7.6C1003.3 9.09333 1004.05 10.56 1004.67 12H1002.48C1001.94 10.6667 1001.31 9.33333 1000.57 8H998.846ZM1000.56 2.88H998.846V6.24H1000.56C1001.03 6.24 1001.38 6.12267 1001.63 5.888C1001.89 5.64267 1002.01 5.312 1002.01 4.896V4.208C1002.01 3.80267 1001.89 3.48267 1001.63 3.248C1001.38 3.00267 1001.03 2.88 1000.56 2.88ZM1019.49 12V1.12H1023.17C1024.47 1.12 1025.46 1.48267 1026.14 2.208C1026.83 2.93333 1027.17 4 1027.17 5.408V7.696C1027.17 9.11467 1026.83 10.1867 1026.14 10.912C1025.46 11.6373 1024.47 12 1023.17 12H1019.49ZM1023.09 2.96H1021.41V10.16H1023.09C1023.85 10.16 1024.38 9.97333 1024.7 9.6C1025.04 9.22667 1025.2 8.592 1025.2 7.696V5.408C1025.2 4.52267 1025.04 3.89333 1024.7 3.52C1024.38 3.14667 1023.85 2.96 1023.09 2.96ZM1036.01 10.16V12H1029.71V1.12H1035.85V2.96H1031.63V5.568H1035.37V7.408H1031.63V10.16H1036.01ZM1040.65 10.384C1041.89 10.384 1042.51 9.92533 1042.51 9.008C1042.51 8.63467 1042.41 8.34133 1042.22 8.128C1042.04 7.91467 1041.7 7.728 1041.2 7.568L1039.89 7.136C1038.32 6.624 1037.53 5.59467 1037.53 4.048C1037.53 3.152 1037.81 2.416 1038.37 1.84C1038.93 1.25333 1039.81 0.959999 1041.01 0.959999C1041.51 0.959999 1042 1.01867 1042.49 1.136C1042.98 1.24267 1043.51 1.41867 1044.06 1.664L1043.47 3.312C1042.96 3.10933 1042.52 2.96533 1042.16 2.88C1041.81 2.784 1041.44 2.736 1041.07 2.736C1040.58 2.736 1040.19 2.82667 1039.9 3.008C1039.62 3.17867 1039.49 3.49333 1039.49 3.952C1039.49 4.29333 1039.58 4.576 1039.77 4.8C1039.98 5.01333 1040.31 5.19467 1040.77 5.344L1042.08 5.776C1042.87 6.04267 1043.46 6.432 1043.85 6.944C1044.26 7.44533 1044.46 8.112 1044.46 8.944C1044.46 9.904 1044.16 10.6827 1043.55 11.28C1042.94 11.8667 1041.99 12.16 1040.69 12.16C1040.17 12.16 1039.64 12.1013 1039.09 11.984C1038.54 11.856 1037.94 11.6427 1037.29 11.344L1037.89 9.696C1038.48 9.952 1038.99 10.1333 1039.41 10.24C1039.83 10.336 1040.25 10.384 1040.65 10.384ZM1048.49 12H1046.57V1.12H1048.49V12ZM1058.69 11.296C1058.42 11.456 1057.98 11.6427 1057.36 11.856C1056.75 12.0587 1056.04 12.16 1055.22 12.16C1054.29 12.16 1053.51 11.968 1052.88 11.584C1052.26 11.2 1051.79 10.672 1051.47 10C1051.15 9.328 1050.99 8.56 1050.99 7.696V5.408C1050.99 4.52267 1051.15 3.74933 1051.47 3.088C1051.79 2.416 1052.27 1.89333 1052.9 1.52C1053.54 1.14667 1054.34 0.959999 1055.3 0.959999C1055.77 0.959999 1056.25 1.01333 1056.75 1.12C1057.25 1.216 1057.8 1.39733 1058.4 1.664L1057.81 3.344C1057.29 3.14133 1056.83 2.99733 1056.45 2.912C1056.08 2.816 1055.7 2.768 1055.33 2.768C1054.5 2.768 1053.89 3.008 1053.52 3.488C1053.15 3.95733 1052.96 4.59733 1052.96 5.408V7.696C1052.96 8.464 1053.15 9.09333 1053.52 9.584C1053.9 10.0747 1054.5 10.32 1055.31 10.32C1055.56 10.32 1055.82 10.2987 1056.11 10.256C1056.4 10.2133 1056.68 10.1547 1056.94 10.08V7.696H1055.18V6.016H1058.69V11.296ZM1061.13 12V1.12H1062.89C1063.73 2.21867 1064.53 3.38133 1065.29 4.608C1066.05 5.824 1066.73 7.07733 1067.35 8.368L1067.21 5.12V1.12H1069.05V12H1067.29C1066.61 10.656 1065.9 9.30667 1065.16 7.952C1064.44 6.58667 1063.66 5.30133 1062.84 4.096L1062.97 7.84V12H1061.13ZM1078.35 10.16V12H1072.05V1.12H1078.19V2.96H1073.97V5.568H1077.71V7.408H1073.97V10.16H1078.35ZM1082.55 8V12H1080.63V1.12H1084.26C1085.36 1.12 1086.2 1.40267 1086.79 1.968C1087.39 2.52267 1087.69 3.26933 1087.69 4.208V4.896C1087.69 5.51467 1087.55 6.05867 1087.29 6.528C1087.02 6.99733 1086.63 7.35467 1086.13 7.6C1087.01 9.09333 1087.75 10.56 1088.37 12H1086.18C1085.65 10.6667 1085.01 9.33333 1084.28 8H1082.55ZM1084.26 2.88H1082.55V6.24H1084.26C1084.73 6.24 1085.09 6.12267 1085.33 5.888C1085.59 5.64267 1085.72 5.312 1085.72 4.896V4.208C1085.72 3.80267 1085.59 3.48267 1085.33 3.248C1085.09 3.00267 1084.73 2.88 1084.26 2.88ZM1101.9 2.96V1.12H1109.9V2.96H1106.86V12H1104.94V2.96H1101.9ZM1117.92 10.16V12H1111.61V1.12H1117.76V2.96H1113.53V5.568H1117.28V7.408H1113.53V10.16H1117.92ZM1121.66 7.696C1121.66 8.47467 1121.83 9.11467 1122.18 9.616C1122.52 10.1067 1123.08 10.352 1123.86 10.352C1124.18 10.352 1124.51 10.3093 1124.85 10.224C1125.2 10.1387 1125.63 9.99467 1126.14 9.792L1126.74 11.456C1126.16 11.712 1125.63 11.8933 1125.14 12C1124.66 12.1067 1124.19 12.16 1123.74 12.16C1122.85 12.16 1122.1 11.968 1121.49 11.584C1120.89 11.2 1120.44 10.672 1120.14 10C1119.84 9.328 1119.7 8.56 1119.7 7.696V5.408C1119.7 4.544 1119.84 3.776 1120.14 3.104C1120.44 2.432 1120.89 1.90933 1121.49 1.536C1122.1 1.152 1122.85 0.959999 1123.74 0.959999C1124.18 0.959999 1124.63 1.01333 1125.1 1.12C1125.57 1.216 1126.08 1.38667 1126.64 1.632L1126.05 3.328C1125.56 3.12533 1125.15 2.98133 1124.82 2.896C1124.48 2.81067 1124.16 2.768 1123.86 2.768C1123.08 2.768 1122.52 3.01333 1122.18 3.504C1121.83 3.99467 1121.66 4.62933 1121.66 5.408V7.696ZM1134.72 12V7.408H1130.66V12H1128.74V1.12H1130.66V5.568H1134.72V1.12H1136.64V12H1134.72ZM1139.64 12V1.12H1141.4C1142.25 2.21867 1143.05 3.38133 1143.8 4.608C1144.56 5.824 1145.25 7.07733 1145.87 8.368L1145.72 5.12V1.12H1147.56V12H1145.8C1145.12 10.656 1144.41 9.30667 1143.68 7.952C1142.95 6.58667 1142.18 5.30133 1141.36 4.096L1141.48 7.84V12H1139.64ZM1152.49 12H1150.57V1.12H1152.49V12ZM1156.96 7.696C1156.96 8.47467 1157.13 9.11467 1157.47 9.616C1157.81 10.1067 1158.37 10.352 1159.15 10.352C1159.47 10.352 1159.8 10.3093 1160.14 10.224C1160.5 10.1387 1160.93 9.99467 1161.44 9.792L1162.03 11.456C1161.46 11.712 1160.92 11.8933 1160.43 12C1159.95 12.1067 1159.49 12.16 1159.04 12.16C1158.14 12.16 1157.39 11.968 1156.78 11.584C1156.19 11.2 1155.74 10.672 1155.44 10C1155.14 9.328 1154.99 8.56 1154.99 7.696V5.408C1154.99 4.544 1155.14 3.776 1155.44 3.104C1155.74 2.432 1156.19 1.90933 1156.78 1.536C1157.39 1.152 1158.14 0.959999 1159.04 0.959999C1159.48 0.959999 1159.93 1.01333 1160.4 1.12C1160.87 1.216 1161.38 1.38667 1161.94 1.632L1161.34 3.328C1160.85 3.12533 1160.44 2.98133 1160.11 2.896C1159.78 2.81067 1159.46 2.768 1159.15 2.768C1158.37 2.768 1157.81 3.01333 1157.47 3.504C1157.13 3.99467 1156.96 4.62933 1156.96 5.408V7.696ZM1169.83 12L1169.16 9.872H1165.43L1164.76 12H1162.85L1166.48 1.12H1168.18L1171.83 12H1169.83ZM1166.47 6.544L1165.97 8.112H1168.6L1168.1 6.544L1167.3 3.792L1166.47 6.544ZM1179.92 10.16V12H1173.64V1.12H1175.56V10.16H1179.92ZM1186.78 5.424L1187.39 9.456L1189.57 1.12H1191.29L1193.45 9.392L1194.13 5.424L1194.96 1.12H1196.91L1194.46 12H1192.49L1190.4 3.904L1188.29 12H1186.32L1183.87 1.12H1185.95L1186.78 5.424ZM1200.75 8V12H1198.83V1.12H1202.46C1203.56 1.12 1204.41 1.40267 1204.99 1.968C1205.59 2.52267 1205.89 3.26933 1205.89 4.208V4.896C1205.89 5.51467 1205.75 6.05867 1205.49 6.528C1205.22 6.99733 1204.84 7.35467 1204.34 7.6C1205.21 9.09333 1205.96 10.56 1206.58 12H1204.38C1203.85 10.6667 1203.22 9.33333 1202.48 8H1200.75ZM1202.46 2.88H1200.75V6.24H1202.46C1202.93 6.24 1203.29 6.12267 1203.54 5.888C1203.79 5.64267 1203.92 5.312 1203.92 4.896V4.208C1203.92 3.80267 1203.79 3.48267 1203.54 3.248C1203.29 3.00267 1202.93 2.88 1202.46 2.88ZM1210.5 12H1208.58V1.12H1210.5V12ZM1212.21 2.96V1.12H1220.21V2.96H1217.17V12H1215.25V2.96H1212.21ZM1228.23 10.16V12H1221.93V1.12H1228.07V2.96H1223.85V5.568H1227.59V7.408H1223.85V10.16H1228.23ZM1232.42 8V12H1230.5V1.12H1234.14C1235.23 1.12 1236.08 1.40267 1236.66 1.968C1237.26 2.52267 1237.56 3.26933 1237.56 4.208V4.896C1237.56 5.51467 1237.43 6.05867 1237.16 6.528C1236.89 6.99733 1236.51 7.35467 1236.01 7.6C1236.88 9.09333 1237.63 10.56 1238.25 12H1236.06C1235.52 10.6667 1234.89 9.33333 1234.15 8H1232.42ZM1234.14 2.88H1232.42V6.24H1234.14C1234.61 6.24 1234.96 6.12267 1235.21 5.888C1235.46 5.64267 1235.59 5.312 1235.59 4.896V4.208C1235.59 3.80267 1235.46 3.48267 1235.21 3.248C1234.96 3.00267 1234.61 2.88 1234.14 2.88ZM1253.07 12V1.12H1256.75C1258.05 1.12 1259.04 1.48267 1259.72 2.208C1260.41 2.93333 1260.75 4 1260.75 5.408V7.696C1260.75 9.11467 1260.41 10.1867 1259.72 10.912C1259.04 11.6373 1258.05 12 1256.75 12H1253.07ZM1256.67 2.96H1254.99V10.16H1256.67C1257.42 10.16 1257.96 9.97333 1258.28 9.6C1258.61 9.22667 1258.78 8.592 1258.78 7.696V5.408C1258.78 4.52267 1258.61 3.89333 1258.28 3.52C1257.96 3.14667 1257.42 2.96 1256.67 2.96ZM1269.59 10.16V12H1263.29V1.12H1269.43V2.96H1265.21V5.568H1268.95V7.408H1265.21V10.16H1269.59ZM1279.48 1.12L1276.02 12H1274.06L1270.58 1.12H1272.7L1274.34 6.592L1275.1 9.408L1275.9 6.576L1277.53 1.12H1279.48ZM1287.51 10.16V12H1281.21V1.12H1287.35V2.96H1283.13V5.568H1286.87V7.408H1283.13V10.16H1287.51ZM1296.06 10.16V12H1289.79V1.12H1291.71V10.16H1296.06ZM1305.51 5.408V7.696C1305.51 9.08267 1305.17 10.176 1304.47 10.976C1303.78 11.7653 1302.77 12.16 1301.43 12.16C1300.09 12.16 1299.07 11.7653 1298.38 10.976C1297.69 10.176 1297.35 9.08267 1297.35 7.696V5.408C1297.35 4.02133 1297.69 2.93333 1298.38 2.144C1299.07 1.35467 1300.09 0.959999 1301.43 0.959999C1302.77 0.959999 1303.78 1.35467 1304.47 2.144C1305.17 2.93333 1305.51 4.02133 1305.51 5.408ZM1303.54 5.408C1303.54 4.53333 1303.37 3.87733 1303.03 3.44C1302.69 2.992 1302.16 2.768 1301.43 2.768C1300.71 2.768 1300.17 2.992 1299.83 3.44C1299.49 3.87733 1299.32 4.53333 1299.32 5.408V7.696C1299.32 8.57067 1299.49 9.232 1299.83 9.68C1300.17 10.128 1300.71 10.352 1301.43 10.352C1302.16 10.352 1302.69 10.128 1303.03 9.68C1303.37 9.232 1303.54 8.57067 1303.54 7.696V5.408ZM1308.05 12V1.12H1311.63C1312.78 1.12 1313.63 1.408 1314.19 1.984C1314.77 2.56 1315.06 3.328 1315.06 4.288V5.136C1315.06 6.096 1314.77 6.86933 1314.19 7.456C1313.63 8.032 1312.78 8.32 1311.63 8.32H1309.97V12H1308.05ZM1311.63 2.96H1309.97V6.48H1311.63C1312.1 6.48 1312.46 6.36267 1312.71 6.128C1312.96 5.89333 1313.09 5.56267 1313.09 5.136V4.288C1313.09 3.872 1312.96 3.54667 1312.71 3.312C1312.46 3.07733 1312.1 2.96 1311.63 2.96ZM1323.54 10.16V12H1317.24V1.12H1323.38V2.96H1319.16V5.568H1322.9V7.408H1319.16V10.16H1323.54ZM1327.74 8V12H1325.82V1.12H1329.45C1330.55 1.12 1331.39 1.40267 1331.98 1.968C1332.57 2.52267 1332.87 3.26933 1332.87 4.208V4.896C1332.87 5.51467 1332.74 6.05867 1332.47 6.528C1332.21 6.99733 1331.82 7.35467 1331.32 7.6C1332.2 9.09333 1332.94 10.56 1333.56 12H1331.37C1330.84 10.6667 1330.2 9.33333 1329.46 8H1327.74ZM1329.45 2.88H1327.74V6.24H1329.45C1329.92 6.24 1330.28 6.12267 1330.52 5.888C1330.78 5.64267 1330.9 5.312 1330.9 4.896V4.208C1330.9 3.80267 1330.78 3.48267 1330.52 3.248C1330.28 3.00267 1329.92 2.88 1329.45 2.88ZM1348.38 12V1.12H1352.06C1353.36 1.12 1354.35 1.48267 1355.04 2.208C1355.72 2.93333 1356.06 4 1356.06 5.408V7.696C1356.06 9.11467 1355.72 10.1867 1355.04 10.912C1354.35 11.6373 1353.36 12 1352.06 12H1348.38ZM1351.98 2.96H1350.3V10.16H1351.98C1352.74 10.16 1353.28 9.97333 1353.6 9.6C1353.93 9.22667 1354.09 8.592 1354.09 7.696V5.408C1354.09 4.52267 1353.93 3.89333 1353.6 3.52C1353.28 3.14667 1352.74 2.96 1351.98 2.96ZM1364.9 10.16V12H1358.6V1.12H1364.74V2.96H1360.52V5.568H1364.26V7.408H1360.52V10.16H1364.9ZM1369.54 10.384C1370.78 10.384 1371.4 9.92533 1371.4 9.008C1371.4 8.63467 1371.3 8.34133 1371.11 8.128C1370.93 7.91467 1370.59 7.728 1370.09 7.568L1368.78 7.136C1367.21 6.624 1366.42 5.59467 1366.42 4.048C1366.42 3.152 1366.7 2.416 1367.26 1.84C1367.82 1.25333 1368.7 0.959999 1369.9 0.959999C1370.4 0.959999 1370.89 1.01867 1371.38 1.136C1371.87 1.24267 1372.4 1.41867 1372.95 1.664L1372.36 3.312C1371.85 3.10933 1371.41 2.96533 1371.05 2.88C1370.7 2.784 1370.33 2.736 1369.96 2.736C1369.47 2.736 1369.08 2.82667 1368.79 3.008C1368.51 3.17867 1368.38 3.49333 1368.38 3.952C1368.38 4.29333 1368.47 4.576 1368.66 4.8C1368.87 5.01333 1369.2 5.19467 1369.66 5.344L1370.97 5.776C1371.76 6.04267 1372.35 6.432 1372.74 6.944C1373.15 7.44533 1373.35 8.112 1373.35 8.944C1373.35 9.904 1373.05 10.6827 1372.44 11.28C1371.83 11.8667 1370.88 12.16 1369.58 12.16C1369.06 12.16 1368.53 12.1013 1367.98 11.984C1367.43 11.856 1366.83 11.6427 1366.18 11.344L1366.78 9.696C1367.37 9.952 1367.88 10.1333 1368.3 10.24C1368.72 10.336 1369.14 10.384 1369.54 10.384ZM1377.38 12H1375.46V1.12H1377.38V12ZM1387.58 11.296C1387.31 11.456 1386.87 11.6427 1386.25 11.856C1385.64 12.0587 1384.93 12.16 1384.11 12.16C1383.18 12.16 1382.4 11.968 1381.77 11.584C1381.15 11.2 1380.68 10.672 1380.36 10C1380.04 9.328 1379.88 8.56 1379.88 7.696V5.408C1379.88 4.52267 1380.04 3.74933 1380.36 3.088C1380.68 2.416 1381.16 1.89333 1381.79 1.52C1382.43 1.14667 1383.23 0.959999 1384.19 0.959999C1384.66 0.959999 1385.14 1.01333 1385.64 1.12C1386.14 1.216 1386.69 1.39733 1387.29 1.664L1386.7 3.344C1386.18 3.14133 1385.72 2.99733 1385.34 2.912C1384.97 2.816 1384.59 2.768 1384.22 2.768C1383.39 2.768 1382.78 3.008 1382.41 3.488C1382.04 3.95733 1381.85 4.59733 1381.85 5.408V7.696C1381.85 8.464 1382.04 9.09333 1382.41 9.584C1382.8 10.0747 1383.39 10.32 1384.2 10.32C1384.45 10.32 1384.72 10.2987 1385 10.256C1385.29 10.2133 1385.57 10.1547 1385.84 10.08V7.696H1384.08V6.016H1387.58V11.296ZM1390.02 12V1.12H1391.78C1392.62 2.21867 1393.42 3.38133 1394.18 4.608C1394.94 5.824 1395.62 7.07733 1396.24 8.368L1396.1 5.12V1.12H1397.94V12H1396.18C1395.5 10.656 1394.79 9.30667 1394.05 7.952C1393.33 6.58667 1392.55 5.30133 1391.73 4.096L1391.86 7.84V12H1390.02ZM1407.25 10.16V12H1400.94V1.12H1407.09V2.96H1402.86V5.568H1406.61V7.408H1402.86V10.16H1407.25ZM1411.44 8V12H1409.52V1.12H1413.15C1414.25 1.12 1415.09 1.40267 1415.68 1.968C1416.28 2.52267 1416.58 3.26933 1416.58 4.208V4.896C1416.58 5.51467 1416.44 6.05867 1416.18 6.528C1415.91 6.99733 1415.52 7.35467 1415.02 7.6C1415.9 9.09333 1416.64 10.56 1417.26 12H1415.07C1414.54 10.6667 1413.9 9.33333 1413.17 8H1411.44ZM1413.15 2.88H1411.44V6.24H1413.15C1413.62 6.24 1413.98 6.12267 1414.22 5.888C1414.48 5.64267 1414.61 5.312 1414.61 4.896V4.208C1414.61 3.80267 1414.48 3.48267 1414.22 3.248C1413.98 3.00267 1413.62 2.88 1413.15 2.88ZM1430.79 2.96V1.12H1438.79V2.96H1435.75V12H1433.83V2.96H1430.79ZM1446.81 10.16V12H1440.5V1.12H1446.65V2.96H1442.42V5.568H1446.17V7.408H1442.42V10.16H1446.81ZM1450.55 7.696C1450.55 8.47467 1450.72 9.11467 1451.07 9.616C1451.41 10.1067 1451.97 10.352 1452.75 10.352C1453.07 10.352 1453.4 10.3093 1453.74 10.224C1454.09 10.1387 1454.52 9.99467 1455.03 9.792L1455.63 11.456C1455.05 11.712 1454.52 11.8933 1454.03 12C1453.55 12.1067 1453.08 12.16 1452.63 12.16C1451.74 12.16 1450.99 11.968 1450.38 11.584C1449.78 11.2 1449.33 10.672 1449.03 10C1448.74 9.328 1448.59 8.56 1448.59 7.696V5.408C1448.59 4.544 1448.74 3.776 1449.03 3.104C1449.33 2.432 1449.78 1.90933 1450.38 1.536C1450.99 1.152 1451.74 0.959999 1452.63 0.959999C1453.07 0.959999 1453.52 1.01333 1453.99 1.12C1454.46 1.216 1454.98 1.38667 1455.53 1.632L1454.94 3.328C1454.45 3.12533 1454.04 2.98133 1453.71 2.896C1453.38 2.81067 1453.06 2.768 1452.75 2.768C1451.97 2.768 1451.41 3.01333 1451.07 3.504C1450.72 3.99467 1450.55 4.62933 1450.55 5.408V7.696ZM1463.61 12V7.408H1459.55V12H1457.63V1.12H1459.55V5.568H1463.61V1.12H1465.53V12H1463.61ZM1468.54 12V1.12H1470.3C1471.14 2.21867 1471.94 3.38133 1472.7 4.608C1473.45 5.824 1474.14 7.07733 1474.76 8.368L1474.62 5.12V1.12H1476.46V12H1474.7C1474.01 10.656 1473.3 9.30667 1472.57 7.952C1471.84 6.58667 1471.07 5.30133 1470.25 4.096L1470.38 7.84V12H1468.54ZM1481.38 12H1479.46V1.12H1481.38V12ZM1485.85 7.696C1485.85 8.47467 1486.02 9.11467 1486.36 9.616C1486.7 10.1067 1487.26 10.352 1488.04 10.352C1488.36 10.352 1488.69 10.3093 1489.04 10.224C1489.39 10.1387 1489.82 9.99467 1490.33 9.792L1490.92 11.456C1490.35 11.712 1489.81 11.8933 1489.32 12C1488.84 12.1067 1488.38 12.16 1487.93 12.16C1487.04 12.16 1486.28 11.968 1485.68 11.584C1485.08 11.2 1484.63 10.672 1484.33 10C1484.03 9.328 1483.88 8.56 1483.88 7.696V5.408C1483.88 4.544 1484.03 3.776 1484.33 3.104C1484.63 2.432 1485.08 1.90933 1485.68 1.536C1486.28 1.152 1487.04 0.959999 1487.93 0.959999C1488.37 0.959999 1488.82 1.01333 1489.29 1.12C1489.76 1.216 1490.27 1.38667 1490.83 1.632L1490.24 3.328C1489.74 3.12533 1489.33 2.98133 1489 2.896C1488.67 2.81067 1488.35 2.768 1488.04 2.768C1487.26 2.768 1486.7 3.01333 1486.36 3.504C1486.02 3.99467 1485.85 4.62933 1485.85 5.408V7.696ZM1498.72 12L1498.05 9.872H1494.32L1493.65 12H1491.74L1495.37 1.12H1497.07L1500.72 12H1498.72ZM1495.36 6.544L1494.86 8.112H1497.49L1496.99 6.544L1496.19 3.792L1495.36 6.544ZM1508.81 10.16V12H1502.54V1.12H1504.46V10.16H1508.81ZM1515.67 5.424L1516.28 9.456L1518.46 1.12H1520.18L1522.34 9.392L1523.02 5.424L1523.85 1.12H1525.8L1523.35 12H1521.38L1519.29 3.904L1517.18 12H1515.21L1512.76 1.12H1514.84L1515.67 5.424ZM1529.64 8V12H1527.72V1.12H1531.35C1532.45 1.12 1533.3 1.40267 1533.88 1.968C1534.48 2.52267 1534.78 3.26933 1534.78 4.208V4.896C1534.78 5.51467 1534.65 6.05867 1534.38 6.528C1534.11 6.99733 1533.73 7.35467 1533.23 7.6C1534.1 9.09333 1534.85 10.56 1535.47 12H1533.27C1532.74 10.6667 1532.11 9.33333 1531.37 8H1529.64ZM1531.35 2.88H1529.64V6.24H1531.35C1531.82 6.24 1532.18 6.12267 1532.43 5.888C1532.68 5.64267 1532.81 5.312 1532.81 4.896V4.208C1532.81 3.80267 1532.68 3.48267 1532.43 3.248C1532.18 3.00267 1531.82 2.88 1531.35 2.88ZM1539.39 12H1537.47V1.12H1539.39V12ZM1541.1 2.96V1.12H1549.1V2.96H1546.06V12H1544.14V2.96H1541.1ZM1557.12 10.16V12H1550.82V1.12H1556.96V2.96H1552.74V5.568H1556.48V7.408H1552.74V10.16H1557.12ZM1561.31 8V12H1559.39V1.12H1563.03C1564.13 1.12 1564.97 1.40267 1565.55 1.968C1566.15 2.52267 1566.45 3.26933 1566.45 4.208V4.896C1566.45 5.51467 1566.32 6.05867 1566.05 6.528C1565.78 6.99733 1565.4 7.35467 1564.9 7.6C1565.77 9.09333 1566.52 10.56 1567.14 12H1564.95C1564.41 10.6667 1563.78 9.33333 1563.04 8H1561.31ZM1563.03 2.88H1561.31V6.24H1563.03C1563.5 6.24 1563.85 6.12267 1564.1 5.888C1564.35 5.64267 1564.48 5.312 1564.48 4.896V4.208C1564.48 3.80267 1564.35 3.48267 1564.1 3.248C1563.85 3.00267 1563.5 2.88 1563.03 2.88Z" fill="white"/>
</svg>
